<svg width="252" height="36" viewBox="0 0 252 36" fill="none" xmlns="http://www.w3.org/2000/svg">
<g clip-path="url(#clip0_21_687)">
<path d="M17.9999 5.70274C22.0051 5.70274 22.4795 5.71804 24.0613 5.7902C25.5238 5.85695 26.3179 6.10125 26.8466 6.30667C27.498 6.54713 28.0874 6.93056 28.5713 7.42874C29.0694 7.91259 29.4529 8.50193 29.6933 9.15344C29.8988 9.682 30.1431 10.4762 30.2098 11.9387C30.2819 13.5204 30.2973 13.9948 30.2973 18.0001C30.2973 22.0053 30.2819 22.4796 30.2098 24.0615C30.143 25.5239 29.8987 26.3181 29.6933 26.8467C29.4438 27.4937 29.0615 28.0812 28.5713 28.5714C28.0809 29.0618 27.4934 29.4439 26.8466 29.6935C26.3181 29.8989 25.5238 30.1433 24.0613 30.21C22.4798 30.2822 22.0055 30.2974 17.9999 30.2974C13.9943 30.2974 13.5201 30.2822 11.9385 30.21C10.4761 30.1433 9.68187 29.8989 9.15326 29.6935C8.50174 29.453 7.9124 29.0697 7.42856 28.5714C6.93038 28.0875 6.54696 27.4983 6.3065 26.8467C6.10107 26.3182 5.85671 25.5239 5.79003 24.0615C5.71786 22.4798 5.70255 22.0053 5.70255 18.0001C5.70255 13.9948 5.71786 13.5206 5.79003 11.9387C5.85678 10.4762 6.10107 9.68206 6.3065 9.15344C6.54698 8.50189 6.93044 7.91252 7.42868 7.42868C7.91252 6.93049 8.50187 6.54707 9.15337 6.30661C9.68193 6.10119 10.4762 5.85683 11.9386 5.79014C13.5204 5.71798 13.9947 5.70268 18 5.70268L17.9999 5.70274ZM18 3C13.9263 3 13.4153 3.01727 11.8156 3.09027C10.219 3.16314 9.12867 3.41668 8.17457 3.7875C7.1737 4.16415 6.26704 4.75457 5.51779 5.51762C4.75459 6.26681 4.16399 7.17348 3.78721 8.17438C3.41668 9.12855 3.16314 10.2189 3.09056 11.8155C3.01727 13.4152 3 13.9262 3 17.9999C3 22.0737 3.01727 22.5846 3.09056 24.1843C3.16344 25.7809 3.41697 26.8713 3.7878 27.8254C4.16444 28.8263 4.75487 29.7329 5.51792 30.4822C6.26715 31.2451 7.17382 31.8356 8.17468 32.2123C9.12885 32.5831 10.2192 32.8366 11.8157 32.9095C13.4156 32.9825 13.9264 32.9998 18.0001 32.9998C22.0738 32.9998 22.5848 32.9825 24.1846 32.9095C25.7812 32.8366 26.8716 32.5831 27.8255 32.2123C28.822 31.8269 29.7269 31.2376 30.4824 30.4822C31.2378 29.7267 31.8271 28.8218 32.2125 27.8254C32.5833 26.8712 32.8369 25.7808 32.9098 24.1843C32.9827 22.5845 33 22.0736 33 17.9999C33 13.9262 32.9827 13.4152 32.9098 11.8155C32.8369 10.2189 32.5833 9.12855 32.2125 8.17445C31.8359 7.17358 31.2454 6.26691 30.4824 5.51768C29.7332 4.75449 28.8264 4.16393 27.8254 3.78721C26.8713 3.41668 25.7809 3.16314 24.1843 3.09056C22.5846 3.01727 22.0737 3 17.9999 3H18Z" fill="white"/>
<path d="M18.0001 10.2972C16.4766 10.2972 14.9874 10.749 13.7207 11.5954C12.454 12.4417 11.4667 13.6448 10.8837 15.0522C10.3007 16.4597 10.1482 18.0084 10.4454 19.5027C10.7426 20.9968 11.4762 22.3693 12.5534 23.4465C13.6307 24.5238 15.0031 25.2574 16.4973 25.5546C17.9914 25.8518 19.5402 25.6993 20.9477 25.1163C22.3551 24.5333 23.5581 23.546 24.4045 22.2793C25.251 21.0125 25.7027 19.5233 25.7027 17.9999C25.7027 15.9571 24.8911 13.9978 23.4466 12.5533C22.0022 11.1088 20.0429 10.2972 18.0001 10.2972ZM18.0001 22.9998C17.0112 22.9998 16.0445 22.7065 15.2222 22.1572C14.4 21.6078 13.7592 20.8269 13.3807 19.9133C13.0023 18.9997 12.9033 17.9943 13.0962 17.0244C13.2892 16.0546 13.7654 15.1637 14.4646 14.4644C15.1639 13.7652 16.0548 13.289 17.0247 13.096C17.9946 12.9031 18.9999 13.0021 19.9135 13.3806C20.8272 13.759 21.608 14.3999 22.1574 15.2221C22.7068 16.0443 23 17.0111 23 17.9999C23 19.3259 22.4733 20.5977 21.5355 21.5354C20.5979 22.473 19.326 22.9998 18.0001 22.9998Z" fill="white"/>
<path d="M26.006 11.7928C27 11.7928 27.8059 10.9869 27.8059 9.99283C27.8059 8.99874 27 8.19287 26.006 8.19287C25.0119 8.19287 24.2061 8.99874 24.2061 9.99283C24.2061 10.9869 25.0119 11.7928 26.006 11.7928Z" fill="white"/>
</g>
<g clip-path="url(#clip1_21_687)">
<path fill-rule="evenodd" clip-rule="evenodd" d="M83.7379 8.1425C85.0229 8.48846 86.0361 9.50164 86.3821 10.7866C87.0246 13.1342 86.9999 18.0271 86.9999 18.0271C86.9999 18.0271 86.9999 22.8953 86.3821 25.2429C86.0361 26.5279 85.0229 27.5411 83.7379 27.8871C81.3903 28.5049 71.9999 28.5049 71.9999 28.5049C71.9999 28.5049 62.6342 28.5049 60.2619 27.8623C58.9769 27.5164 57.9638 26.5032 57.6178 25.2182C57 22.8953 57 18.0024 57 18.0024C57 18.0024 57 13.1342 57.6178 10.7866C57.9638 9.50164 59.0016 8.46375 60.2619 8.11779C62.6095 7.5 71.9999 7.5 71.9999 7.5C71.9999 7.5 81.3903 7.5 83.7379 8.1425ZM69.0103 13.5049L76.8191 18.0025L69.0103 22.5V13.5049Z" fill="white"/>
</g>
<path d="M120.413 30.3934C131.741 30.3934 137.935 21.0064 137.935 12.871C137.935 12.6028 137.935 12.3346 137.922 12.0792C139.123 11.2107 140.17 10.1252 141 8.88634C139.902 9.37165 138.714 9.70371 137.462 9.85696C138.739 9.09068 139.71 7.89017 140.17 6.447C138.982 7.14943 137.667 7.66028 136.262 7.94125C135.138 6.74074 133.542 6 131.766 6C128.369 6 125.61 8.75862 125.61 12.1558C125.61 12.6411 125.662 13.1137 125.776 13.5607C120.655 13.3052 116.121 10.8531 113.082 7.12388C112.558 8.03065 112.252 9.09068 112.252 10.2146C112.252 12.3474 113.337 14.2376 114.997 15.3359C113.989 15.3104 113.043 15.0294 112.213 14.5696C112.213 14.5952 112.213 14.6207 112.213 14.6462C112.213 17.6347 114.333 20.1124 117.156 20.6871C116.645 20.8276 116.096 20.9042 115.534 20.9042C115.138 20.9042 114.755 20.8659 114.372 20.7893C115.151 23.2414 117.424 25.0166 120.119 25.0677C118.011 26.7152 115.355 27.6986 112.469 27.6986C111.971 27.6986 111.485 27.6731 111 27.6092C113.695 29.3717 116.939 30.3934 120.413 30.3934Z" fill="white"/>
<g clip-path="url(#clip2_21_687)">
<path fill-rule="evenodd" clip-rule="evenodd" d="M179.999 2.99999C171.717 2.99999 165 9.7157 165 18.0005C165 24.6268 169.298 30.2495 175.258 32.2339C176.009 32.3711 176.282 31.9079 176.282 31.5101C176.282 31.1537 176.269 30.2108 176.262 28.9594C172.09 29.8655 171.209 26.9483 171.209 26.9483C170.527 25.2152 169.543 24.7539 169.543 24.7539C168.182 23.8238 169.647 23.8423 169.647 23.8423C171.152 23.9482 171.944 25.3884 171.944 25.3884C173.282 27.6803 175.455 27.0182 176.31 26.6342C176.446 25.6655 176.834 25.0044 177.262 24.6296C173.931 24.2502 170.429 22.9638 170.429 17.2159C170.429 15.5778 171.014 14.2398 171.974 13.1909C171.819 12.8116 171.304 11.2866 172.121 9.22118C172.121 9.22118 173.38 8.81784 176.245 10.7581C177.441 10.4256 178.725 10.2599 180 10.2534C181.275 10.2599 182.558 10.4256 183.756 10.7581C186.619 8.81784 187.876 9.22118 187.876 9.22118C188.695 11.2866 188.18 12.8116 188.026 13.1909C188.988 14.2398 189.568 15.5778 189.568 17.2159C189.568 22.9785 186.061 24.2465 182.72 24.6176C183.257 25.0808 183.737 25.9961 183.737 27.3958C183.737 29.4004 183.719 31.0184 183.719 31.5101C183.719 31.9116 183.99 32.3784 184.75 32.232C190.706 30.2439 195 24.6259 195 18.0005C195 9.7157 188.283 2.99999 179.999 2.99999Z" fill="white"/>
</g>
<path fill-rule="evenodd" clip-rule="evenodd" d="M234 3C225.719 3 219 9.7191 219 18C219 26.2809 225.719 33 234 33C242.265 33 249 26.2809 249 18C249 9.7191 242.265 3 234 3ZM243.908 9.91431C245.697 12.0944 246.771 14.8764 246.804 17.8861C246.381 17.8048 242.151 16.9425 237.888 17.4794C237.791 17.2679 237.709 17.0401 237.612 16.8124C237.351 16.1941 237.059 15.5597 236.766 14.9577C241.484 13.038 243.631 10.2722 243.908 9.91431ZM234 5.21258C237.254 5.21258 240.231 6.43275 242.492 8.43384C242.265 8.75922 240.329 11.346 235.773 13.0542C233.675 9.19848 231.348 6.0423 230.99 5.55423C231.95 5.32646 232.959 5.21258 234 5.21258ZM228.55 6.41649C228.892 6.87201 231.169 10.0445 233.3 13.8189C227.313 15.4132 222.026 15.3807 221.457 15.3807C222.286 11.4111 224.971 8.10846 228.55 6.41649ZM221.18 18.0163C221.18 17.8861 221.18 17.756 221.18 17.6258C221.733 17.6421 227.948 17.7234 234.342 15.8037C234.716 16.5195 235.057 17.2516 235.383 17.9837C235.22 18.0326 235.041 18.0814 234.879 18.1301C228.273 20.2614 224.759 26.0857 224.466 26.5738C222.433 24.3124 221.18 21.3026 221.18 18.0163ZM234 30.82C231.039 30.82 228.306 29.8113 226.142 28.1193C226.37 27.6475 228.973 22.6367 236.196 20.115C236.229 20.0987 236.245 20.0987 236.278 20.0824C238.084 24.7516 238.816 28.6724 239.011 29.795C237.465 30.462 235.773 30.82 234 30.82ZM241.142 28.6237C241.012 27.8427 240.329 24.1009 238.653 19.4968C242.671 18.8623 246.185 19.9035 246.625 20.0499C246.072 23.6128 244.022 26.6876 241.142 28.6237Z" fill="white"/>
<defs>
<clipPath id="clip0_21_687">
<rect width="30" height="29.9998" fill="white" transform="translate(3 3)"/>
</clipPath>
<clipPath id="clip1_21_687">
<rect width="51" height="35.7082" fill="white" transform="translate(57 7.5) scale(0.588235)"/>
</clipPath>
<clipPath id="clip2_21_687">
<rect width="30" height="30" fill="white" transform="translate(165 3)"/>
</clipPath>
</defs>
</svg>
